<svg width="1440" height="850" viewBox="0 0 1440 850" fill="none" xmlns="http://www.w3.org/2000/svg">
<g clip-path="url(#clip0_3057_70743)">
<g opacity="0.4">
<path d="M1534.56 23.0353L1318.46 23.0353L1491.25 100.095L1534.56 23.0353Z" fill="#0F0F0F"/>
<path d="M1684.36 210.922L1263.32 23.0353H1245.46L1684.36 216.117V210.922Z" fill="#0F0F0F"/>
<path d="M1684.36 274.127L1490.14 189.059L1421.83 315.038L1510.9 359.196C1520.72 348.806 1543.27 328.892 1574.3 328.459C1584.35 328.459 1595.07 330.84 1605.78 336.251C1654.9 361.361 1655.57 361.144 1664.72 365.473C1664.94 365.69 1669.85 366.989 1675.21 366.772C1678.11 366.772 1681.46 366.556 1684.59 365.906V274.127H1684.36Z" fill="#0F0F0F"/>
<path d="M1065.52 799.906L1178.71 689.079L956.802 618.513L963.723 883.676L1065.52 799.906Z" fill="#0F0F0F"/>
<path d="M1201.04 62.6466L1158.84 157.456L1404.19 275.643L1458.67 175.205L1201.04 62.6466Z" fill="#0F0F0F"/>
<path d="M723.503 398.809C789.361 406.601 860.354 415.476 923.087 423.052L922.194 384.306L732.657 366.989L723.503 398.809Z" fill="#0F0F0F"/>
<path d="M1015.51 374.782L1135.4 384.089L1170.67 362.011L1158.61 338.849L962.156 23.0353H941.617L950.547 369.803L997.652 373.483L1022.88 305.948L1039.18 311.576L1015.51 374.782Z" fill="#0F0F0F"/>
<path d="M1185.41 55.7206L1110.4 23.0353L1025.34 23.0353L1084.72 136.46L1143.21 150.53L1185.41 55.7206Z" fill="#0F0F0F"/>
<path d="M1077.36 812.247L1064.85 822.421L1179.38 873.072C1182.51 867.877 1186.08 862.466 1189.87 856.621C1208.18 829.78 1232.29 799.26 1260.2 784.54C1277.16 775.665 1309.98 757.266 1345.92 736.919L1318.69 691.246L1333.87 683.237L1360.88 728.91C1368.47 724.581 1376.29 720.252 1383.88 715.923L1305.07 588.861L1221.57 670.683L1277.61 725.014L1265.33 736.919L1209.52 682.804L1180.72 711.161L1218.9 750.556L1206.39 762.029L1168.66 723.066L1077.36 812.247Z" fill="#0F0F0F"/>
<path d="M1468.26 909.436L1491.04 888.006L1393.25 730.207C1385.44 734.536 1377.63 739.082 1369.81 743.411L1468.26 909.436Z" fill="#0F0F0F"/>
<path d="M1501.3 668.301C1488.8 675.444 1455.76 694.492 1417.81 715.922L1512.02 867.876L1611.58 773.283L1501.3 668.301Z" fill="#0F0F0F"/>
<path d="M1102.58 445.347L1103.25 445.563C1103.25 445.563 1103.25 445.563 1103.92 445.779C1104.59 445.779 1105.71 445.996 1107.05 446.212C1109.72 446.429 1113.97 446.862 1118.88 446.862C1131.38 446.862 1149.02 444.697 1164.42 436.255C1170.89 432.792 1183.4 425.649 1199.47 416.557L1178.71 377.162L1140.09 401.405L950.995 386.903L952.111 426.731C1038.28 437.338 1102.13 445.347 1102.13 445.347H1102.58Z" fill="#0F0F0F"/>
<path d="M1633.91 752.07L1606 718.086L1684.36 627.173V504.657L1593.5 419.155L1514.7 379.976L1326.05 568.079L1408.88 701.635C1443.03 682.153 1473.17 664.837 1488.13 656.395L1393.92 566.348L1405.97 554.442L1623.86 761.594L1633.91 752.07Z" fill="#0F0F0F"/>
<path d="M1392.58 980.866L1455.32 921.34L1354.63 751.636C1318.69 771.983 1285.87 790.166 1268.46 799.257C1241.22 813.327 1213.09 851.424 1195.23 879.996L1273.82 914.846L1311.54 853.372L1326.5 862.03L1289.67 921.989L1370.26 957.705L1363.11 972.857L1284.75 938.224L1282.3 950.778L1352.4 980.866H1392.58Z" fill="#0F0F0F"/>
<path d="M1163.97 899.912C1165.76 896.665 1167.99 892.552 1170.67 887.79L1050.12 834.541L1036.94 845.364L1163.97 899.912Z" fill="#0F0F0F"/>
<path d="M675.956 679.987L774.408 699.469L779.543 655.96L703.192 633.881H702.969L707.881 617.863H708.327L798.519 643.406V643.839L875.316 666.134L928.896 664.835L929.119 663.536L928.896 652.281L878.219 646.653L804.1 625.44L809.012 609.422L881.791 630.202L928.673 635.397L925.547 509.85L705.871 492.101C698.058 537.124 688.681 593.837 681.091 647.951C679.528 658.341 677.742 669.164 675.956 679.987Z" fill="#0F0F0F"/>
<path d="M924.874 492.97L923.981 456.821C907.461 454.873 890.047 452.709 872.411 450.544C821.51 444.267 767.484 437.773 716.584 431.712C714.351 443.185 711.672 458.12 708.547 475.653L924.874 492.97Z" fill="#0F0F0F"/>
<path d="M1183.84 325.427L1229.61 399.023C1248.81 387.984 1269.79 375.862 1290.11 364.173C1333.42 339.28 1373.6 315.903 1386.33 308.327L1395.93 290.577L1152.14 172.823L1130.04 222.392L1183.84 325.427Z" fill="#0F0F0F"/>
<path d="M489.322 571.111L407.613 557.907L395.334 667.219L453.825 678.258L489.098 572.41L489.322 571.111Z" fill="#0F0F0F"/>
<path d="M372.781 674.145L310.048 663.538L290.402 702.934L389.524 747.524L384.613 757.698L285.491 713.107L267.185 749.472L364.521 792.115L359.832 802.289L262.273 759.43L229.009 825.883L415.644 832.376L469.894 692.76L372.781 674.145Z" fill="#0F0F0F"/>
<path d="M1316.9 553.146L1498.62 371.97L1413.79 329.977L1412.45 332.358L1408.21 334.739C1407.98 334.739 1309.98 391.884 1241.22 431.28L1316.9 553.146Z" fill="#0F0F0F"/>
<path d="M363.403 432.144L241.956 426.732L322.102 455.089L277.453 542.971L347.553 556.392L380.816 435.174L363.403 432.144Z" fill="#0F0F0F"/>
<path d="M598.04 980.867H649.834L653.406 970.044L687.786 980.867H723.059L755.206 878.698L668.363 851.857L673.721 835.839L676.623 836.705L776.862 867.659V867.875L935.814 917.012L934.251 854.455L691.804 789.084L696.492 772.85L933.581 836.922L931.349 749.039L816.376 730.424L819.279 713.973L930.902 731.939L929.563 681.72L872.858 683.019L796.284 660.94L789.14 719.601L673.051 696.656C653.629 803.154 618.579 928.484 598.04 980.867Z" fill="#0F0F0F"/>
<path d="M43.4908 387.338L25.8542 423.053H26.0775L26.7472 423.486C36.7934 428.898 44.607 434.959 50.858 441.452L67.6016 392.966L43.4908 387.338Z" fill="#0F0F0F"/>
<path d="M956.355 600.768L1192.1 675.663L1295.92 573.711L1216.44 445.35C1200.59 454.442 1187.86 461.585 1181.17 465.264C1158.39 477.603 1134.95 479.984 1118.88 479.984C1107.49 479.984 1099.68 478.685 1097.22 478.252C1095.22 478.036 1085.84 476.737 1070.88 475.005L1052.8 520.029L954.346 512.02L956.355 600.768Z" fill="#0F0F0F"/>
<path d="M1095.22 156.374L1119.77 203.129L1136.07 166.115L1095.22 156.374Z" fill="#0F0F0F"/>
<path d="M952.779 460.501L953.672 495.351L1041.18 502.494L1053.02 473.056C1027.57 469.809 992.74 465.48 952.779 460.501Z" fill="#0F0F0F"/>
<path d="M357.823 980.869L411.18 843.417L48.8486 830.863L40.8116 851.643L197.978 904.892L192.174 920.693L35.0072 867.444L26.5239 889.74L310.718 980.869H357.823Z" fill="#0F0F0F"/>
<path d="M-34.4178 794.062L-84.8717 933.678L-24.3716 959.437L27.4219 822.418L-34.4178 794.062Z" fill="#0F0F0F"/>
<path d="M101.76 401.622L164.716 420.886L165.832 417.207L101.76 401.622Z" fill="#0F0F0F"/>
<path d="M199.321 673.063L212.27 645.356L128.998 608.125L113.594 649.469L199.321 673.063Z" fill="#0F0F0F"/>
<path d="M184.805 457.901L290.178 492.534L306.028 461.364L212.264 428.029L213.38 425.432L196.191 424.782L182.572 421.319L181.233 426.081L195.074 430.41L184.805 457.901Z" fill="#0F0F0F"/>
<path d="M8.22195 419.805L25.6353 384.522L-85.0956 373.266L-118.36 439.719L-73.2635 460.716L-78.175 470.89L-123.271 449.893L-177.52 558.123L-48.9296 602.064L-29.0605 549.681L-18.3446 553.577L-38.2136 605.96L-12.7634 614.619L5.76614 562.668L-83.0865 527.386L-150.061 508.77L-146.935 497.947L-85.9887 514.831C-78.6215 473.487 -69.0219 448.594 -58.5292 433.442C-47.5901 417.641 -35.0882 412.662 -25.7118 412.879C-19.0143 412.879 -14.3261 415.043 -12.3169 416.125L8.22195 419.805Z" fill="#0F0F0F"/>
<path d="M677.291 291.878C690.239 221.961 717.475 157.024 732.88 87.9731C737.791 66.3271 742.033 44.6812 746.274 23.0353L625.944 23.0353C613.442 59.184 591.564 89.4883 591.564 89.4883C496.014 122.607 452.034 79.3147 437.969 23.0353L259.371 23.0353L225.661 286.033L222.089 285.6C260.934 302.268 284.375 312.441 284.375 312.441C284.375 312.441 291.519 315.472 305.137 320.45C318.532 325.429 338.178 332.356 362.065 339.715C409.84 354.435 475.028 370.885 544.458 378.029C573.034 381.059 612.549 385.605 657.645 390.8C664.343 357.898 671.263 324.996 677.291 291.878Z" fill="#0F0F0F"/>
<path d="M224.547 160.273L76.9806 155.078V152.697L61.7998 217.202C118.728 241.445 170.075 263.307 208.92 279.975L224.547 160.273Z" fill="#0F0F0F"/>
<path d="M505.836 456.17L392.203 436.905L354.251 575.655L315.406 653.148L374.79 663.321L383.943 665.053L397.338 544.918L490.879 560.07L496.46 520.675L410.956 502.925L413.412 491.885L498.246 509.635L505.836 456.17Z" fill="#0F0F0F"/>
<path d="M912.822 23.0353L829.104 23.0353L737.126 350.538L921.528 367.422L912.822 23.0353Z" fill="#0F0F0F"/>
<path d="M1684.36 240.793L1189.65 23.0353L1166.43 23.0353L1684.36 249.452V240.793Z" fill="#0F0F0F"/>
<path d="M811.243 23.0353L772.174 23.0353C764.807 59.6169 758.333 96.415 749.18 132.564C732.659 198.151 707.879 260.275 695.824 326.944C691.805 349.24 687.34 371.535 683.098 393.83C690.689 394.696 698.503 395.562 706.316 396.644L811.243 23.0353Z" fill="#0F0F0F"/>
<path d="M-221.055 349.673L-206.544 350.106L-134.658 215.468L-124.389 220.663L-194.042 351.188L30.0986 373.7L58.6743 252.483C32.5543 241.443 5.31808 229.755 -22.8111 217.849C-80.8556 193.173 -141.802 167.631 -199.623 143.387L-221.278 178.887V349.673H-221.055Z" fill="#0F0F0F"/>
<path d="M-30.6255 783.458L40.8138 816.144L48.4043 792.55L-21.9188 760.081L-30.6255 783.458Z" fill="#0F0F0F"/>
<path d="M223.435 648.82L210.263 676.526L279.693 698.822L298.446 661.591L223.435 648.82Z" fill="#0F0F0F"/>
<path d="M344.658 567.215L272.102 553.362L228.569 638.43L303.58 651.201L343.318 571.761L344.658 567.215Z" fill="#0F0F0F"/>
<path d="M-16.5605 426.299L-17.4534 425.649C-17.4534 425.649 -17.4534 425.649 -17.6767 425.433C-18.1232 425.216 -18.5696 425 -19.2393 424.784C-20.8021 424.134 -22.8114 423.701 -25.4904 423.701C-31.0716 423.918 -39.1085 425.866 -48.9314 439.503C-58.0846 452.707 -67.9073 476.517 -75.0513 518.294L-46.9221 529.55L-50.7173 527.385L-16.1139 437.988L39.0283 445.78C34.5634 441.667 28.9822 437.555 22.2847 433.875L-16.5605 426.299Z" fill="#0F0F0F"/>
<path d="M217.402 635.401L260.266 550.981L157.348 531.5L132.791 597.52L217.402 635.401Z" fill="#0F0F0F"/>
<path d="M265.623 540.805L285.046 502.492L180.789 468.291L161.367 520.891L265.623 540.805Z" fill="#0F0F0F"/>
<path d="M128.329 822.421L194.41 683.454L109.799 659.86L98.4136 690.38L57.7826 820.04L128.329 822.421Z" fill="#0F0F0F"/>
<path d="M218.743 825.449L216.734 824.583L251.337 755.316L183.916 731.938L140.829 822.851L218.743 825.449Z" fill="#0F0F0F"/>
<path d="M205.57 686.702L188.826 721.768L256.47 745.362L274.553 708.997L205.57 686.702Z" fill="#0F0F0F"/>
<path d="M-63.6623 163.95C-26.3799 179.752 10.6792 195.337 45.7291 210.273L89.9321 23.0353L-48.7047 23.0353L-80.4059 99.6619L-96.4798 93.3846L-67.2342 23.0353L-88.8893 23.0353L-138.004 132.564C-118.581 140.789 -98.9354 149.015 -79.5128 157.24L-33.9704 70.2234L-18.5662 77.7995L-63.6623 163.95Z" fill="#0F0F0F"/>
<path d="M640.683 486.473C643.808 465.693 647.603 444.913 651.398 424.132C607.419 418.937 568.797 414.608 540.891 411.578C395.556 396.209 271.654 343.61 270.761 343.177C270.761 343.177 249.776 334.085 214.726 319.15L186.15 410.712L197.982 413.526L364.971 420.886L620.814 463.744L618.804 474.784L517.45 457.9L509.636 512.015L511.199 512.231L614.786 525.219L613.223 536.258L509.413 523.271L507.85 523.054L502.269 561.801L599.382 577.602L597.596 588.641L500.706 573.056L500.483 575.005L465.433 680.42L580.629 702.283L578.396 713.322L481.73 694.923L427.927 833.024L558.751 846.661C571.029 799.906 586.657 754.233 600.051 707.478C620.59 634.747 629.297 560.718 640.683 486.473Z" fill="#0F0F0F"/>
<path d="M530.619 980.869C535.53 955.76 540.442 930.65 545.13 905.541C548.032 889.307 551.827 873.289 555.846 857.487L424.353 843.85H423.683L370.327 980.869H530.619Z" fill="#0F0F0F"/>
<path d="M579.514 980.869C579.961 979.786 580.407 978.704 580.854 977.622C603.402 921.559 648.275 759.214 663.902 645.789C675.511 562.453 691.585 472.838 699.398 429.763C691.585 428.897 683.994 428.031 676.404 426.949C668.814 466.345 661.446 505.74 655.865 545.352C646.712 611.589 637.336 678.258 618.136 742.547C597.374 812.247 574.826 879.998 561.431 951.647C559.645 961.387 557.636 971.128 555.85 980.869H579.514Z" fill="#0F0F0F"/>
<path d="M241.958 23.0353L107.786 23.0353L80.5493 138.408L226.553 143.603L241.958 23.0353Z" fill="#0F0F0F"/>
<path d="M182.802 305.512C152.217 292.525 115.381 276.723 74.7499 259.406L47.0671 376.728L168.96 406.599L198.429 312.223C193.518 310.058 188.383 307.893 182.802 305.512Z" fill="#0F0F0F"/>
<path d="M108.015 659.426L98.4151 690.38L109.801 659.859L108.015 659.426Z" fill="#0F0F0F"/>
<path d="M67.6055 393.18L50.8619 441.667C65.5962 457.252 70.5077 475.435 70.2845 491.237C70.2845 515.48 60.015 535.178 58.229 538.641L26.0814 627.173L94.6185 644.49L164.718 420.887L101.986 401.406L67.6055 393.18Z" fill="#0F0F0F"/>
<path d="M-16.5564 624.794L-58.5269 743.197L-32.4069 755.319L11.3496 634.318L-16.5564 624.794Z" fill="#0F0F0F"/>
<path d="M132.793 597.517L157.35 531.497L148.643 529.765L128.105 595.352L132.793 597.517Z" fill="#0F0F0F"/>
<path d="M-21.9181 760.081L48.405 792.55L91.2686 655.315L22.285 637.781L-21.9181 760.081Z" fill="#0F0F0F"/>
<path d="M113.597 649.469L129.001 608.125L124.76 606.177L111.365 648.819L113.597 649.469Z" fill="#0F0F0F"/>
<path d="M184.812 457.901L195.082 430.41L181.24 426.081L172.533 453.788L184.812 457.901Z" fill="#0F0F0F"/>
<path d="M15.1404 623.927L33.6699 573.059L33.4467 573.276L5.54076 562.236L-12.7656 614.186L15.1404 623.927Z" fill="#0F0F0F"/>
<path d="M-50.939 527.169L-47.1438 529.334L37.2439 562.885L47.5132 534.312L47.9597 533.879C47.9597 533.879 50.6388 529.117 53.3177 521.325C56.22 513.532 58.8989 502.709 58.8989 491.237C58.6757 476.085 54.434 459.85 38.8066 445.78L-16.3356 437.988L-50.939 527.169Z" fill="#0F0F0F"/>
<path d="M161.371 520.893L180.794 468.293L169.185 464.613L151.995 519.161L161.371 520.893Z" fill="#0F0F0F"/>
<path d="M591.793 89.4883C591.793 89.4883 613.671 58.9675 626.173 23.0353L438.198 23.0353C452.04 79.3147 496.019 122.607 591.793 89.4883Z" fill="#B4CD9B"/>
<path d="M695.6 327.16C707.655 260.274 732.659 198.367 748.956 132.779C758.109 96.4142 764.584 59.8326 771.951 23.251L746.277 23.251C742.035 44.8969 737.794 66.5428 732.882 88.1888C717.255 157.239 690.242 222.177 677.294 292.094C671.043 325.212 664.345 358.114 657.648 391.232C665.908 392.098 674.168 393.18 682.875 394.262C687.34 371.534 691.582 349.455 695.6 327.16Z" fill="#8BBBB9"/>
<path d="M555.627 980.867C557.413 971.127 559.422 961.386 561.208 951.645C574.603 879.997 597.151 812.462 617.913 742.546C637.112 678.257 646.489 611.588 655.642 545.351C661.223 505.523 668.367 466.127 676.181 426.948C667.697 425.866 659.214 425 651.177 423.917C647.158 444.697 643.586 465.478 640.461 486.258C629.299 560.503 620.369 634.749 599.607 707.263C586.212 754.018 570.808 799.691 558.306 846.446L559.422 846.662L558.306 857.702L555.404 857.485C551.385 873.287 547.813 889.305 544.688 905.539C540 930.649 535.088 955.758 530.177 980.867H555.627Z" fill="#8BBBB9"/>
<path d="M1684.36 216.117L1245.46 23.0353L1189.65 23.0353L1684.36 240.793V216.117Z" fill="#343238"/>
<path d="M1674.54 849.044L1684.36 854.239V800.341L1679.45 805.103L1550.19 929.351L1549.97 929.134L1527.2 892.336L1684.36 743.196V704.016L1633.91 752.07L1623.86 761.595L1405.97 554.443L1393.92 566.348L1488.13 656.395C1473.4 664.837 1443.03 682.154 1408.88 701.635L1326.05 568.08L1514.7 379.977L1593.5 419.156L1684.36 504.657V481.28L1603.77 405.302L1526.75 367.206C1536.57 358.114 1554.43 344.91 1574.08 345.343C1581.45 345.343 1589.04 346.858 1597.52 351.188C1646.41 376.297 1648.42 376.513 1656.68 380.626C1661.82 383.007 1667.62 383.657 1674.77 383.657C1677.89 383.657 1681.02 383.44 1684.14 383.007V366.123C1681.02 366.773 1677.67 366.989 1674.77 366.989C1669.63 366.989 1664.72 365.907 1664.27 365.69C1655.34 361.361 1654.45 361.578 1605.34 336.468C1594.62 330.84 1583.9 328.676 1573.86 328.676C1542.83 329.109 1520.28 349.023 1510.45 359.413L1421.38 315.255L1490.14 189.06L1684.36 274.128V249.668L1166.43 23.0353L1110.39 23.0353L1185.41 55.7206L1143.21 150.53L1084.94 136.46L1025.34 23.0353L962.381 23.0353L1158.84 338.849L1170.89 361.794L1135.62 383.873L1015.74 374.782L1039.18 311.576L1022.88 305.948L997.654 373.483L950.549 369.803L941.619 23.0353L912.82 23.0353L921.75 367.422L737.347 350.538L829.102 23.0353H811.243L706.316 396.644C698.502 395.778 690.689 394.696 683.098 393.83C674.615 392.748 666.131 391.882 657.871 390.8C612.999 385.605 573.26 381.059 544.685 378.029C475.255 370.669 409.843 354.218 362.291 339.715C338.404 332.356 318.981 325.429 305.363 320.45C291.968 315.472 284.601 312.441 284.601 312.441C284.601 312.441 260.937 302.268 222.315 285.6L225.887 286.033L259.374 23.0353L241.961 23.0353L226.557 143.603L80.5524 138.625L107.789 23.0353L90.1521 23.0353L45.7258 210.489C10.6759 195.553 -26.3833 179.968 -63.6656 164.167L-18.7928 78.016L-34.1969 70.4399L-79.5162 157.24C-98.9387 149.015 -118.585 140.789 -138.007 132.564L-88.8926 23.0353H-107.646L-124.389 60.4827L-184.443 37.1051L-190.917 52.6902L-131.533 76.0678L-154.081 126.07C-176.852 116.546 -199.4 107.021 -221.279 97.9302V134.512C-219.493 135.378 -217.483 136.027 -215.697 136.893L-221.279 146.201V178.886L-199.624 143.387C-141.802 167.63 -80.8557 193.389 -22.8113 217.849C5.31787 229.754 32.5542 241.443 58.6742 252.482L30.0984 373.699L-194.266 351.188L-124.612 220.663L-134.882 215.468L-206.767 350.105L-221.279 349.672V360.928L-212.795 361.145L-221.279 377.163V401.406L-200.07 361.578L-97.376 371.968L-188.684 554.227L-221.055 543.187V555.092L-193.596 564.4L-221.055 618.948V644.49L-182.657 568.08L-52.9498 612.238L-104.743 749.473L-220.832 699.254V711.592L-176.406 730.857L-180.648 739.083L-220.609 816.142V841.252L-170.601 743.845L-166.136 735.403L-108.762 760.296L-155.644 903.808L-221.055 875.885V894.284L-160.778 919.826L-171.494 952.728C-186.675 949.265 -203.419 944.286 -220.832 938.225V955.975C-205.428 961.17 -190.47 965.499 -176.629 968.746L-180.648 980.868H-168.592L-150.063 924.372L-101.171 945.152L-114.12 980.868H-101.841L-90.4553 949.698L-30.1785 975.24L-32.4109 980.868H35.6797L-2.71899 967.447L20.722 905.324L255.579 980.868H310.721L26.5265 889.738L35.0099 867.443L192.176 920.692L197.757 904.891L40.8143 851.858L48.6279 831.078L411.182 843.633L357.603 981.084H369.882L423.238 844.066H423.908L555.401 857.703L558.303 857.919L559.419 846.88L558.303 846.663L427.479 833.026L481.282 694.925L577.949 713.324L580.181 702.285L464.985 680.422L500.258 575.007L500.482 573.058L597.371 588.643L599.157 577.604L502.044 561.803L507.849 523.056L509.188 523.273L612.999 536.26L614.561 525.221L510.974 512.233L509.411 512.017L517.225 457.902L618.58 474.786L620.589 463.747L364.747 420.888L197.757 413.528L185.925 410.714L214.501 319.152C249.328 334.087 270.536 343.179 270.536 343.179C271.429 343.612 395.555 396.211 540.666 411.58C568.572 414.61 607.194 418.939 651.174 424.134C659.434 425 667.694 426.083 676.178 427.165C683.768 428.031 691.359 428.897 699.172 429.979C691.135 473.054 675.061 562.885 663.676 646.005C648.048 759.43 603.176 921.774 580.628 977.837C580.181 978.92 579.735 980.002 579.288 981.084H597.818C618.356 928.701 653.406 803.371 672.829 696.873L789.141 720.034L796.285 661.374L872.859 683.453L929.564 682.154L930.903 732.373L819.279 714.406L816.377 730.857L931.35 749.473L933.582 837.355L696.27 773.283L691.582 789.518L934.029 854.888L935.592 917.445L776.639 868.309V868.093L676.401 837.139L673.499 836.273L668.141 852.291L754.984 879.132L722.836 981.301H740.919L755.207 935.628L771.281 884.327L772.397 884.76L793.606 891.254L935.815 935.195L936.931 981.301H965.73L965.507 968.963L998.771 970.045L1008.59 973.508L1007.03 981.301H1024.67L1025.11 979.136L1030.92 981.301H1046.77L1050.79 970.478L1001.9 953.161L965.507 951.646L964.391 905.324L1022.66 857.486L1234.52 948.615L1219.79 981.084H1238.76L1250.37 955.542L1309.98 981.084H1352.62L1282.52 950.997L1284.97 938.442L1363.33 973.075L1370.48 957.923L1289.89 922.207L1326.72 862.248L1311.76 853.59L1274.04 915.064L1195.23 880.214C1213.09 851.642 1241.44 813.545 1268.45 799.475C1285.64 790.384 1318.68 771.985 1354.63 751.854L1455.31 921.558L1392.58 980.868H1433.88L1506.21 912.467L1529.21 949.481L1496.39 980.651H1537.47L1544.39 974.158L1548.41 980.651H1581.67L1565.37 953.81L1674.54 849.044ZM62.0228 217.199L77.2037 152.694V155.075L224.547 160.271L209.143 279.973C170.075 263.305 118.951 241.443 62.0228 217.199ZM-38.2153 605.527L-18.3463 553.144L-29.0623 549.248L-48.9314 601.631L-177.522 557.69L-123.273 449.46L-78.1768 470.457L-73.2653 460.283L-118.361 439.287L-85.0974 372.834L25.6335 384.089L8.22021 419.372L-12.3186 415.476C-14.3279 414.394 -19.2394 412.229 -25.7135 412.229C-35.09 412.013 -47.8151 416.991 -58.531 432.793C-69.0236 447.945 -78.8464 472.621 -85.9905 514.182L-146.937 497.298L-150.063 508.121L-83.0883 526.736L5.7644 562.019L33.6704 573.058L33.8937 572.626L15.3641 623.493L-12.5419 613.969L-38.2153 605.527ZM-25.7135 423.702C-23.0345 423.702 -21.0254 424.351 -19.4626 424.784C-18.7928 425 -18.123 425.217 -17.8998 425.433C-17.6766 425.65 -17.6766 425.65 -17.6766 425.65L-16.7836 426.299L21.8383 433.875C28.5356 437.555 34.1168 441.668 38.5818 445.78C54.2092 459.85 58.4509 476.085 58.6742 491.237C58.6742 502.709 55.9951 513.532 53.0929 521.325C50.4139 529.117 47.5118 533.879 47.7351 533.879L47.5117 534.312L37.2424 562.885L-47.1453 529.334L-75.2745 518.078C-68.1306 476.518 -58.3077 452.491 -49.1545 439.287C-39.5549 425.866 -31.2947 423.702 -25.7135 423.702ZM-94.4738 754.235L-42.2339 616.134L-16.5604 624.792L11.3456 634.316L-32.4109 755.101L-40.8943 778.695L-94.4738 754.235ZM157.35 531.498L260.267 550.98L217.18 635.182L132.792 597.518L128.104 595.354L148.643 529.767L157.35 531.498ZM161.368 520.892L151.992 519.16L169.182 464.612L181.014 468.509L285.271 502.709L265.848 540.806L161.368 520.892ZM183.916 731.94L251.337 755.317L216.734 824.584L218.743 825.45L141.053 822.853L183.916 731.94ZM128.328 822.42L57.7812 820.039L98.4122 690.596L108.012 659.642L109.575 660.075L194.186 683.453L128.328 822.42ZM188.828 721.766L205.571 686.7L274.778 708.995L256.695 745.144L188.828 721.766ZM210.259 676.526L223.431 649.036L298.442 661.807L279.689 699.038L210.259 676.526ZM228.566 638.429L272.099 553.361L344.655 567.214L343.315 571.976L303.577 651.417L228.566 638.429ZM128.997 608.125L212.492 645.356L199.32 673.063L113.816 649.252L111.584 648.603L124.979 605.96L128.997 608.125ZM91.2684 655.313L48.1815 792.548L40.8143 816.142L-30.625 783.457L-22.1416 760.079L22.2848 637.78L91.2684 655.313ZM-144.928 908.354L-98.0459 765.058L-44.6896 789.518L-95.3668 929.351L-144.928 908.354ZM-24.374 959.438L-84.8741 933.68L-34.1969 794.063L27.6428 822.203L-24.374 959.438ZM469.897 692.76L415.647 832.377L229.012 825.883L262.276 759.43L359.835 802.289L364.524 792.115L267.188 749.473L285.494 713.108L384.839 757.698L389.751 747.525L290.629 702.934L310.274 663.538L372.784 674.145L469.897 692.76ZM489.319 571.11L489.096 572.626L453.823 678.474L395.109 667.218L407.387 557.906L489.319 571.11ZM505.839 456.17L498.026 509.852L413.192 492.103L410.736 502.926L496.463 520.892L490.659 560.071L397.118 544.919L383.5 665.054L374.347 663.322L314.963 653.148L353.808 575.656L391.983 436.906L505.839 456.17ZM363.407 432.143L380.821 435.174L347.557 556.391L277.457 542.971L322.33 455.305L242.184 426.948L363.407 432.143ZM196.195 424.784L213.385 425.65L212.492 428.247L306.256 461.582L290.405 492.536L185.032 457.902L172.754 453.789L181.46 426.083L183.023 421.32L196.195 424.784ZM165.833 417.208L164.717 420.888L94.6171 644.49L26.08 627.173L58.2277 538.641C60.0135 535.178 70.2831 515.48 70.2831 491.237C70.5063 475.219 65.5948 457.253 50.8605 441.668C44.6095 435.174 36.7959 428.897 26.7498 423.702L26.08 423.269H25.8567L43.4933 387.553L67.604 393.397L101.761 401.839L165.833 417.208ZM169.182 406.601L47.2886 376.73L74.748 259.409C115.379 276.726 152.215 292.527 182.8 305.515C188.381 307.896 193.516 310.06 198.651 312.225L169.182 406.601ZM1501.3 668.301L1611.59 773.283L1512.02 867.876L1417.81 715.922C1455.76 694.276 1488.8 675.444 1501.3 668.301ZM1296.14 573.708L1192.33 675.66L956.577 600.765L954.344 512.233L1052.8 520.242L1070.88 475.219C1085.84 477.167 1095.21 478.249 1097.22 478.466C1099.68 478.899 1107.72 480.197 1118.88 480.197C1135.18 480.197 1158.39 477.816 1181.16 465.478C1187.86 461.798 1200.59 454.655 1216.44 445.564L1296.14 573.708ZM1041.19 502.493L953.675 495.35L952.782 460.5C992.743 465.478 1027.57 469.807 1053.02 473.054L1041.19 502.493ZM1498.62 371.968L1316.9 553.144L1241.22 431.278C1309.98 391.882 1408.21 334.737 1408.21 334.737L1412.45 332.356L1413.79 329.975L1498.62 371.968ZM1201.03 62.6473L1458.44 175.206L1403.97 275.643L1158.84 157.457L1201.03 62.6473ZM1095.21 156.374L1136.29 166.331L1119.77 203.129L1095.21 156.374ZM1183.84 325.429L1129.82 222.394L1151.92 172.825L1395.93 290.579L1386.33 308.329C1373.6 315.688 1333.42 339.066 1290.11 364.175C1269.79 375.864 1248.81 387.986 1229.61 399.025L1183.84 325.429ZM723.506 398.809L732.436 366.989L921.973 384.306L922.866 423.052C860.357 415.26 789.364 406.601 723.506 398.809ZM951.889 426.515L950.772 386.687L1139.86 401.19L1178.49 376.946L1199.25 416.342C1183.4 425.433 1170.67 432.576 1164.2 436.04C1148.57 444.482 1131.16 446.646 1118.65 446.646C1113.74 446.646 1109.5 446.43 1106.82 445.997C1105.48 445.78 1104.37 445.78 1103.7 445.564C1103.03 445.564 1103.03 445.347 1103.03 445.347L1102.36 445.131H1101.69C1101.91 445.347 1038.06 437.122 951.889 426.515ZM716.585 431.711C767.486 437.771 821.512 444.265 872.412 450.542C890.049 452.707 907.239 454.872 923.983 456.82L924.876 492.969L708.549 475.435C711.674 458.119 714.353 443.183 716.585 431.711ZM798.517 644.057V643.624L708.325 618.082H707.879L702.967 634.1H703.191L779.541 656.179L774.407 699.687L675.954 680.206C677.74 669.166 679.526 658.343 680.866 648.17C688.233 594.271 697.833 537.343 705.646 492.319L925.322 510.069L928.448 635.615L881.566 630.42L808.787 609.64L803.875 625.658L877.994 646.871L928.671 652.499L928.894 663.755L928.671 665.054L875.091 666.352L798.517 644.057ZM963.721 883.678L956.8 618.515L1178.49 688.864L1065.3 799.908L963.721 883.678ZM1268.68 931.082L1266.22 943.853L1179.82 906.622C1180.94 904.674 1182.06 902.51 1183.4 899.912C1184.29 898.18 1185.41 896.449 1186.3 894.501L1268.68 931.082ZM1170.89 887.79C1168.22 892.552 1165.76 896.665 1164.2 899.912L1037.39 845.364L1050.56 834.541L1170.89 887.79ZM1260.42 784.756C1232.73 799.475 1208.4 829.996 1190.09 856.837C1186.3 862.465 1182.73 868.093 1179.6 873.288L1065.08 822.636L1077.58 812.463L1168.66 722.632L1206.39 761.595L1218.89 750.122L1180.72 710.727L1209.52 682.37L1265.33 736.485L1277.61 724.58L1221.57 670.249L1305.07 588.427L1383.87 715.489C1376.28 719.818 1368.47 724.147 1360.88 728.476L1333.87 683.236L1318.91 691.678L1346.14 737.351C1310.2 757.482 1277.38 775.881 1260.42 784.756ZM1369.59 743.412C1377.4 739.083 1385.21 734.537 1393.03 730.208L1490.81 888.007L1468.04 909.436L1369.59 743.412Z" fill="#343238"/>
<path d="M1684.36 186.246L1533.23 118.927L1587.03 23.0353L1534.57 23.0353L1491.26 100.095L1318.46 23.0353L1263.32 23.0353L1684.36 210.922V186.246Z" fill="#343238"/>
</g>
<g filter="url(#filter0_f_3057_70743)" style="mix-blend-mode:plus-lighter">
<path d="M1279 367.5C1279 529.596 1033.43 661 730.5 661C427.572 661 182 529.596 182 367.5C182 205.404 427.572 74 730.5 74C1033.43 74 1279 205.404 1279 367.5Z" fill="#1D1D1D" fill-opacity="0.2"/>
</g>
</g>
<defs>
<filter id="filter0_f_3057_70743" x="-53.8808" y="-161.881" width="1568.76" height="1058.76" filterUnits="userSpaceOnUse" color-interpolation-filters="sRGB">
<feFlood flood-opacity="0" result="BackgroundImageFix"/>
<feBlend mode="normal" in="SourceGraphic" in2="BackgroundImageFix" result="shape"/>
<feGaussianBlur stdDeviation="117.94" result="effect1_foregroundBlur_3057_70743"/>
</filter>
<clipPath id="clip0_3057_70743">
<rect x="-154" width="1769.11" height="850" rx="425" fill="white"/>
</clipPath>
</defs>
</svg>
